<svg id="Layer_1" data-name="Layer 1" xmlns="http://www.w3.org/2000/svg" xmlns:xlink="http://www.w3.org/1999/xlink" viewBox="0 0 44.0877 41.4821"><defs><style>.cls-1{fill:none;}.cls-2{clip-path:url(#clip-path);}.cls-3{fill:#ccbcad;}</style><clipPath id="clip-path"><rect class="cls-1" x="-383.6431" y="-255.1954" width="383.6431" height="218.547"/></clipPath></defs><title>a049254b1cf8bb071965287052cc71cf</title><g class="cls-2"><image width="2200" height="1166" transform="translate(-479.0315 -297.8267) scale(0.2541 0.2623)" xlink:href="../../../../../../WORK/Al%20Hamayel/Web/Gmail%20Add/New%20folder/Gallery.png"/></g><path class="cls-3" d="M33.5074,27.042a3.8544,3.8544,0,1,0,3.8548,3.8548A3.8587,3.8587,0,0,0,33.5074,27.042Zm0,6.6884a2.834,2.834,0,1,1,2.8344-2.8336A2.8368,2.8368,0,0,1,33.5074,33.73Z"/><path class="cls-3" d="M19.1957,34.7826H1.218A15.678,15.678,0,0,1,8.8418,22.04c.03-.0177.059-.0354.0886-.0528.3292-.1931.6657-.3758,1.0106-.5449l.0111-.0057a15.349,15.349,0,0,1,2.264-.893c.0507.0233.1047.0384.1555.0609.1847.081.3753.15.565.2208.1506.0557.2986.1168.4513.1654.2784.09.5642.1626.853.23.0651.0149.1286.0363.1937.05a10.7535,10.7535,0,0,0,2.2373.2374c.0267,0,.0523-.0042.0791-.0044s.052.0044.0788.0044a10.75,10.75,0,0,0,2.2371-.2374c.0653-.0139.1288-.0353.1939-.05.2887-.0671.5746-.14.8534-.23.1526-.0486.3-.11.4508-.1654.19-.0705.38-.14.5651-.2208.0507-.0225.1047-.0376.1555-.0609a15.349,15.349,0,0,1,2.264.893l.0111.0057c.1852.0908.3621.1946.5423.2925l.6208-.6191.2129-.2071c.0173-.0167.0379-.028.0552-.0443-.0594-.0345-.1188-.0695-.179-.1029-.2372-.1316-.4793-.2557-.7239-.3761-.1085-.0533-.2152-.1088-.325-.16q-.4855-.2258-.9895-.4207c-.0321-.0124-.0622-.028-.0944-.04A10.7462,10.7462,0,0,0,16.83,0c-.0268,0-.0524.004-.0788.004S16.6986,0,16.6719,0a10.7462,10.7462,0,0,0-5.85,19.7649c-.0322.0122-.0623.0278-.094.04q-.5043.195-.99.4207c-.11.0509-.2165.1064-.325.16-.2445.12-.4866.2445-.7238.3761-.13.0721-.2587.1468-.3869.2223q-.33.1943-.65.4032c-.1138.0743-.2281.1474-.34.2245-.0664.0452-.1353.0863-.2009.1325l.012.0053A16.8467,16.8467,0,0,0,0,35.4413a.5929.5929,0,0,0,.386.5535v.071H21.8841l-.2463-1.2832ZM7.2675,10.7542A9.5706,9.5706,0,0,1,16.751,1.1957,9.5534,9.5534,0,0,1,20.6623,19.433c-.19.0873-.3818.1687-.5766.2426-.1163.0446-.2326.0887-.3509.1287-.2368.08-.476.1489-.7174.2095-.082.02-.1621.0442-.2441.0625a9.6778,9.6778,0,0,1-.9564.1652c-.0153.0016-.03.0049-.0458.0068-.2389.0274-.4786.0431-.7181.0522-.1007.0024-.2013.0037-.302.003s-.2012-.0006-.3019-.003c-.24-.0091-.48-.0248-.7185-.0522-.0156-.0019-.03-.0052-.0458-.0068a9.6848,9.6848,0,0,1-.9565-.1652c-.0821-.0183-.162-.0421-.2442-.0625-.2408-.0606-.48-.13-.7168-.2095-.1187-.04-.2351-.0841-.3514-.1287-.1947-.0739-.3864-.1553-.5766-.2426A9.5668,9.5668,0,0,1,7.2675,10.7542Z"/><path class="cls-3" d="M44.0754,29.9375a1.3625,1.3625,0,0,0-1.343-1.343l-1.4923.0116a7.9646,7.9646,0,0,0-.6747-1.62l1.0576-1.0641a1.3225,1.3225,0,0,0,.278-1.4543,1.2842,1.2842,0,0,0-.2954-.4463l-1.2869-1.2761a1.3148,1.3148,0,0,0-.9387-.3844,1.2481,1.2481,0,0,0-.9347.3926l-1.0517,1.0584a8.0561,8.0561,0,0,0-1.6333-.6756V21.648a1.3117,1.3117,0,0,0-.2252-.7392,1.3848,1.3848,0,0,0-.1765-.22,1.32,1.32,0,0,0-.9371-.3877l-1.8123.0016A1.3285,1.3285,0,0,0,31.2843,21.63l.0017,1.4914a8.0281,8.0281,0,0,0-1.6474.6765L28.5769,22.731a1.3225,1.3225,0,0,0-1.8733-.0057l-.2128.207-.0578.062-.8266.8215-.0981.1419.0033.0025-.27.2837a1.3267,1.3267,0,0,0,.0453,1.8734l1.0807,1.0295a7.9846,7.9846,0,0,0-.6484,1.6581l-1.5046.0314a1.3254,1.3254,0,0,0-1.2977,1.3528l.0372,1.8115a1.3267,1.3267,0,0,0,1.3446,1.2976l1.5-.0305a8.033,8.033,0,0,0,.71,1.6316l-1.046,1.084a1.3237,1.3237,0,0,0,.0322,1.8742l.8357.8067.2432.2492a.9405.9405,0,0,0,.1023.0849l.1222.118a1.326,1.326,0,0,0,1.8733-.033l1.037-1.0732a7.9485,7.9485,0,0,0,1.4394.5931l-.02,1.4906a1.3162,1.3162,0,0,0,.3762.9428,1.2755,1.2755,0,0,0,.8315.3878,1.3259,1.3259,0,0,0,.3712.0577h.0182l1.7149-.0255v-.0091a1.3232,1.3232,0,0,0,1.1507-1.2943l.02-1.4931a8.1565,8.1565,0,0,0,1.6564-.6525l1.0468,1.0815a1.326,1.326,0,0,0,1.8733.0313l1.3018-1.26a1.3237,1.3237,0,0,0,.0314-1.8734l-1.0378-1.0732a8.04,8.04,0,0,0,.7795-1.8437l1.5047-.0124a1.3253,1.3253,0,0,0,1.3157-1.305h.0049Zm-1.3157,2.1-1.7843.014-.5073-.0478-.099.4372a7.0383,7.0383,0,0,1-.9718,2.2916l-.1814.3935.3126.2664,1.26,1.3034a.3017.3017,0,0,1,.0858.2153.3076.3076,0,0,1-.0932.2161l-1.3034,1.26a.3045.3045,0,0,1-.4305-.0065l-1.2456-1.2869-.3078-.3976-.3877.2318a7.0675,7.0675,0,0,1-2.1374.84l-.4091.1485.0355.4108-.0231,1.8115a.3114.3114,0,0,1-.0932.217.3043.3043,0,0,1-.2161.085l-1.6746-.005a.3383.3383,0,0,1-.0916-.0594.3013.3013,0,0,1-.0924-.2145l-.0256-1.7908.0454-.5-.1955-.0429.0009-.01-.4348-.1089a7.0883,7.0883,0,0,1-2.1118-.9115L29.3,36.6333l-1.574,1.5772a.2424.2424,0,0,1-.1855.08.34.34,0,0,1-.1948-.0634l-.2977-.2872-.9107-.9271a.246.246,0,0,1-.0264-.104.3065.3065,0,0,1,.0849-.2178l1.2432-1.2852.3869-.325-.2434-.3778a7.0634,7.0634,0,0,1-.9123-2.1052l-.1584-.4091-.4133.0528-1.8082.0371a.33.33,0,0,1-.2219-.085.3015.3015,0,0,1-.0932-.2137l-.0379-1.8123a.3041.3041,0,0,1,.2986-.3118l1.7718-.0371.5189.0371.0924-.4339a7.0584,7.0584,0,0,1,.8406-2.1381l.1658-.4-.3226-.2548L25.9909,25.38a.31.31,0,0,1-.0949-.2145.3072.3072,0,0,1,.0841-.2186l1.26-1.3174a.3111.3111,0,0,1,.2153-.0874.3011.3011,0,0,1,.207.0824l1.291,1.2291.3333.3886.3737-.2458a7.0284,7.0284,0,0,1,2.2924-.9709l.4034-.1568-.038-.4083V21.648a.3056.3056,0,0,1,.3053-.3052h1.8123a.279.279,0,0,1,.292.2837l.0016,1.79-.0371.353-.0017.1023-.009.0644.4438.1047a7.0746,7.0746,0,0,1,2.12.8827l.3976.1782.2606-.3209L39.18,23.4958a.3077.3077,0,0,1,.433-.0017L40.897,24.77a.2777.2777,0,0,1,.0578.0824.2934.2934,0,0,1-.0652.3242l-1.2572,1.2679-.2763.2309-.1031.1148.0074.0115-.0033.0025.2293.3679a7.1007,7.1007,0,0,1,.8835,2.1241l.1031.2549.0569.1287,2.2479-.04a.2779.2779,0,0,1,.2475.1724.31.31,0,0,1,.0231.1048l.014,1.8123A.306.306,0,0,1,42.76,32.0377Z"/></svg>