<svg id="Layer_1" data-name="Layer 1" xmlns="http://www.w3.org/2000/svg" viewBox="0 0 25.1901 25.1901"><defs><style>.cls-1{fill:#c5b2a1;}.cls-2{fill:#202b36;}</style></defs><title>s</title><path class="cls-1" d="M12.5951,25.19h0A12.5951,12.5951,0,0,1,0,12.5951H0A12.5951,12.5951,0,0,1,12.5951,0h0A12.595,12.595,0,0,1,25.19,12.595h0A12.595,12.595,0,0,1,12.5951,25.19Z"/><path class="cls-2" d="M10.996,18.8175h2.5547V12.42H15.333l.19-2.1421H13.5507v-1.22c0-.505.1013-.7046.59-.7046H15.523V6.1305H13.7541c-1.901,0-2.7581.8374-2.7581,2.44v1.7078H9.6671v2.1688H10.996Z"/></svg>