<svg id="Layer_1" data-name="Layer 1" xmlns="http://www.w3.org/2000/svg" xmlns:xlink="http://www.w3.org/1999/xlink" viewBox="0 0 31.0301 38.4376"><defs><style>.cls-1{fill:none;}.cls-2{clip-path:url(#clip-path);}.cls-3{fill:#ccbcad;}</style><clipPath id="clip-path"><rect class="cls-1" x="-231.4921" y="-255.1954" width="383.6431" height="218.547"/></clipPath></defs><title>a049254b1cf8bb071965287052cc71cf</title><g class="cls-2"><image width="2200" height="1166" transform="translate(-326.8805 -297.8267) scale(0.2541 0.2623)" xlink:href="../../../../../../WORK/Al%20Hamayel/Web/Gmail%20Add/New%20folder/Gallery.png"/></g><path class="cls-3" d="M30.5557,38.4376c-.221,0-.5156-.01-.9016-.0248L3.0053,38.412c.0231-.0132-.009-.038-.0528-.0512A3.7158,3.7158,0,0,1,0,34.48Q-.0011,18.547.0043,2.6133A2.3339,2.3339,0,0,1,2.4032.0379L27.6141.0387A.9774.9774,0,0,1,27.9185,0a4.1556,4.1556,0,0,1,.4892.0354L28.5949.07A3.4249,3.4249,0,0,1,31.03,2.506l-.0042,29.2811-.2722.2854a5.3032,5.3032,0,0,0-.58,2.379,15.2439,15.2439,0,0,0,.4718,2.9219,4.5762,4.5762,0,0,0,.2731.7251.9989.9989,0,0,1,.1081.2936c-.0125.01-.09.0455-.4711.0455Zm-2.5226-6.4468a.37.37,0,0,0-.2713.0916.4331.4331,0,0,0-.0949.3159c.0074.5577.0066,1.1161.0049,1.6754V35.302c.0017.5494.0025,1.0988-.0049,1.649a.46.46,0,0,0,.0949.3432.3535.3535,0,0,0,.2656.0924c.2252-.01.4075-.0132.5906-.0132.2046,0,.41.0041.6154.01h.0016a.5367.5367,0,0,0,.4463-.1733.431.431,0,0,0,.0635-.39,7.2817,7.2817,0,0,1,0-4.3721.3365.3365,0,0,0-.028-.3192.3732.3732,0,0,0-.3251-.1378c-.2342.0083-.4429.0116-.6524.0116q-.34,0-.6806-.0116Zm-24.52.0066a2.1343,2.1343,0,0,0-.45.0322,2.6669,2.6669,0,0,0-2.0813,2.893A2.5979,2.5979,0,0,0,3.56,37.3791l22.7147.0066a.4625.4625,0,0,0,.3424-.103.4917.4917,0,0,0,.1014-.3581c-.0123-1.4568-.0148-2.9144.0017-4.37a.5936.5936,0,0,0-.12-.4462.5516.5516,0,0,0-.4051-.1221q-3.3359.0123-6.6619.01l-4.698-.0008ZM2.4981,1.0674c-1.0469,0-1.5352.5156-1.5352,1.621V31.9735l.4355-.2945a4.7673,4.7673,0,0,1,.8191-.49,4.6333,4.6333,0,0,1,1.1764-.273.299.299,0,0,0,.2508-.3853c-.0017-1.16-.0026-7.94-.0026-7.94q-.0011-10.51.0067-21.02c0-.1666,0-.514-.3869-.514a.7839.7839,0,0,0-.1023.0075,2.121,2.121,0,0,1-.2417.0116ZM28.7088,30.8979c.169,0,.3374.0074.5039.0239.0364.0033.0686.0049.099.0049.4439,0,.4439-.3753.4439-.5774q-.01-9.2927-.0058-18.5853l.0016-5.9311c.0017-1.018.0025-2.0367-.0033-3.0547a1.6047,1.6047,0,0,0-1.5417-1.7166l-.0314-.0008a.5166.5166,0,0,0-.3877.1113.62.62,0,0,0-.1238.4438q.0138,5.6846.0083,11.3723v8.3151q.0013,4.5449-.0074,9.0881c0,.1864,0,.5337.4207.5337C28.3474,30.9061,28.5281,30.8979,28.7088,30.8979Zm-2.3486.0173a.37.37,0,0,0,.2846-.076c.0751-.0767.0726-.1781.0684-.3612l-.0016-17.2629Q26.71,7.413,26.7215,1.61a.5713.5713,0,0,0-.1229-.4306.56.56,0,0,0-.42-.1188q-5.1573.0075-10.3122.0074-5.35,0-10.7032-.01c-.4793,0-.5692.2128-.5692.6038q.0137,12.5211.0083,25.0419v3.5867c0,.5452.0355.6236.5757.6236l20.9445-.0008ZM30.7108,3.2617V4.42l.2524.0156a9.0568,9.0568,0,0,0,.0157-1.0575c-.0033-.0421-.0091-.0874-.0157-.1345Z"/></svg>