<svg id="Layer_1" data-name="Layer 1" xmlns="http://www.w3.org/2000/svg" viewBox="0 0 25.1901 25.1901"><defs><style>.cls-1{fill:#c5b2a1;}.cls-2{fill:#202b36;}</style></defs><title>s</title><path class="cls-1" d="M12.5951,25.19h0A12.5951,12.5951,0,0,1,0,12.5951H0A12.5951,12.5951,0,0,1,12.5951,0h0A12.595,12.595,0,0,1,25.19,12.595h0A12.595,12.595,0,0,1,12.5951,25.19Z"/><rect class="cls-2" x="6.9425" y="10.5111" width="2.4304" height="7.8517"/><path class="cls-2" d="M8.1461,9.483A1.4489,1.4489,0,1,0,6.709,8.0338,1.4434,1.4434,0,0,0,8.1461,9.483Z"/><path class="cls-2" d="M13.2582,14.2411c0-1.1036.5079-1.7613,1.4808-1.7613.8935,0,1.3231.6312,1.3231,1.7613v4.1217h2.419V13.3914c0-2.1031-1.1921-3.12-2.8568-3.12a2.7375,2.7375,0,0,0-2.3661,1.2973V10.5111H10.9267v7.8517h2.3315Z"/></svg>