<?xml version="1.0" encoding="utf-8"?>
<!-- Generator: Adobe Illustrator 24.0.2, SVG Export Plug-In . SVG Version: 6.00 Build 0)  -->
<svg version="1.1" id="Layer_1" xmlns="http://www.w3.org/2000/svg" xmlns:xlink="http://www.w3.org/1999/xlink" x="0px" y="0px"
	 viewBox="0 0 68 68" style="enable-background:new 0 0 68 68;" xml:space="preserve">
<style type="text/css">
	.st0{fill:none;stroke:#C4B2A1;stroke-miterlimit:10;}
	.st1{fill:#FFFFFF;}
	.st2{fill:#C4B2A1;}
</style>
<title>Social Media</title>
<g>
	<circle class="st0" cx="34" cy="34" r="32.5"/>
	<path class="st1" d="M39.1,38.4c0-0.1,0-0.2,0-0.3c0-0.8-0.1-1.6-0.2-2.3c-0.4-1.8-1.2-3.8-2.7-5.1c0,0,0,0,0,0
		c-0.1-0.1-0.1-0.1-0.2-0.2c0,0-0.1-0.1-0.1-0.1c-0.3-0.2-0.6-0.4-1-0.6c-0.3-0.1-0.6-0.2-0.9-0.3c0,0,0,0,0,0
		c-0.3-0.1-0.6-0.1-0.9-0.1c0,0,0,0,0,0c0,0,0,0,0,0c-4.5-0.3-7.7,4.2-7.7,4.2c-0.1-1.4-0.4-4.6,0-8.4c0.4-3.6,1.3-5.6,2.1-6.7
		c0.4-0.4,0.7-0.7,0.9-0.9l0,0c0,0,0.1-0.1,0.1-0.1c0.1-0.1,0.3-0.3,0.4-0.4c0.4-0.3,0.7-0.5,1-0.6l0,0c-0.3,0-3.5,0-5.7,2
		c-0.8,0.7-1.5,1.7-1.9,3c-0.1,0.2-0.1,0.5-0.2,0.7c-0.3,1.2-0.5,2.3-0.6,3.4c-0.3,3.2-0.2,6.6-0.1,7.8c0,0.1,0,0.3,0,0.3l0,0
		c0,0.4,0,0.9,0.1,1.4c0.2,3.5,0.4,6.3,0.4,8.7c-0.1,3-0.4,5.3-0.8,6.9c0,0,0.1-0.1,0.3-0.2c0,0,0,0,0,0c0,0,0.1,0,0.1-0.1
		c0,0,0.1,0,0.1,0c0.1-0.1,0.2-0.1,0.4-0.2c0.1,0,0.1-0.1,0.2-0.1c0.3-0.2,0.7-0.4,1.1-0.6c0,0,0.1,0,0.1-0.1
		c0.2-0.1,0.4-0.2,0.5-0.3c0,0,0,0,0.1,0c0.9-0.5,1.9-0.9,2.5-1.3c0.1-0.1,0.2-0.1,0.3-0.2c0.1-0.1,0.2-0.1,0.3-0.2
		c0.1-0.1,0.2-0.1,0.3-0.2c0,0,0,0,0,0c-0.4-1.7-0.8-3.5-1.1-5.2c-0.3-1.9-0.4-3.6,0.3-5.4c0.8-2,2.3-4.4,4.7-4.5
		c3.8-0.3,2.9,9.7,2.2,14.3c-0.2,1.6-0.4,3.2-0.7,4.5c0.2-0.3,0.5-0.9,0.9-1.6c0.3-0.5,0.6-0.9,0.9-1.3c0.6-0.7,1.2-1.3,1.8-1.9
		c0.7-0.8,1.3-1.7,1.7-2.7c0.5-1.3,0.8-2.7,0.8-4.4C39.1,38.9,39.1,38.6,39.1,38.4"/>
	<g>
		
			<image style="overflow:visible;opacity:0.1;" width="25" height="42" xlink:href="3F0297D4.png"  transform="matrix(1 0 0 1 18.5822 13.9954)">
		</image>
		<g>
			<path class="st1" d="M39.1,38.4c0-0.1,0-0.2,0-0.3c0-0.8-0.1-1.6-0.2-2.3c-0.4-1.8-1.2-3.8-2.7-5.1c0,0,0,0,0,0
				c-0.1-0.1-0.1-0.1-0.2-0.2c0,0-0.1-0.1-0.1-0.1c-0.3-0.2-0.6-0.4-1-0.6c-0.3-0.1-0.6-0.2-0.9-0.3c0,0,0,0,0,0
				c-0.3-0.1-0.6-0.1-0.9-0.1c0,0,0,0,0,0c-4.5-0.3-7.7,4.2-7.7,4.2c-0.1-1.4-0.4-4.6,0-8.4c0.4-3.6,1.3-5.6,2.1-6.7
				c0.4-0.4,0.7-0.7,0.9-0.9l0,0c0,0,0.1-0.1,0.1-0.1c0.1-0.1,0.3-0.3,0.4-0.4c0.4-0.3,0.7-0.5,1-0.6l0,0c-0.3,0-3.5,0-5.7,2
				c-0.8,0.7-1.5,1.7-1.9,3c-0.1,0.2-0.1,0.5-0.2,0.7c-0.3,1.2-0.5,2.3-0.6,3.4c-0.3,3.2-0.2,6.6-0.1,7.8c0,0.1,0,0.3,0,0.3l0,0
				c0,0.4,0,0.9,0.1,1.4c0.2,3.5,0.4,6.3,0.4,8.7c-0.1,3-0.4,5.3-0.8,6.9c0,0,0.1-0.1,0.3-0.2c0,0,0,0,0,0c0,0,0.1,0,0.1-0.1
				c0,0,0.1,0,0.1,0c0.1-0.1,0.2-0.1,0.4-0.2c0.1,0,0.1-0.1,0.2-0.1c0.3-0.2,0.7-0.4,1.1-0.6c0,0,0.1,0,0.1-0.1
				c0.2-0.1,0.4-0.2,0.5-0.3c0,0,0,0,0.1,0c0.9-0.5,1.9-0.9,2.5-1.3c0.1-0.1,0.2-0.1,0.3-0.2c0.1-0.1,0.2-0.1,0.3-0.2
				c0.1-0.1,0.2-0.1,0.3-0.2c0,0,0,0,0,0c-0.4-1.7-0.8-3.5-1.1-5.2c-0.3-1.9-0.4-3.6,0.3-5.4c0.8-2,2.3-4.4,4.7-4.5
				c3.8-0.3,2.9,9.7,2.2,14.3c-0.2,1.6-0.4,3.2-0.7,4.5c0.2-0.3,0.5-0.9,0.9-1.6c0.3-0.5,0.6-0.9,0.9-1.3c0.6-0.7,1.2-1.3,1.8-1.9
				c0.7-0.8,1.3-1.7,1.7-2.7c0.5-1.3,0.8-2.7,0.8-4.4C39.1,38.9,39.1,38.6,39.1,38.4z"/>
		</g>
	</g>
	<path class="st2" d="M30.1,36.8c0-0.2,0-0.5,0-0.7c0-0.9,0.2-1.8,0.5-2.7c0-0.1,0-0.1,0-0.1l0,0c0.3-0.8,0.8-1.7,1.5-2.5
		c1.2-1.6,2.8-3,4.8-4.2c1.3-0.8,2.6-1.4,3.8-1.7c1.5-0.4,3.4-0.7,5.6-0.7l2.2-5.5c-0.6,0.1-5.7,1-9.2,0.5c0,0-0.6-0.1-1-0.1
		c-1.2-0.2-2.3-0.4-3.4-0.6c-1.1-0.2-2.2-0.2-3.4-0.2c-1.4,0-2.5,0.8-3.4,2.2c-0.3,0.6-0.6,1.2-0.9,2c0,0,0-0.1,0-0.1
		c-0.1,0.4-0.3,0.9-0.4,1.4c-0.2,1-0.3,1.7-0.3,2c0.5-0.9,1-1.5,1.5-1.8c0.7-0.4,1.6-0.6,2.9-0.6c0.9,0,1.7,0,2.5,0.1
		c0.4,0,0.8,0.1,1.1,0.2c0,0-6.8,3.9-7.3,12.9c0,0.1,0,0.2,0,0.2c0,0,0,0,0,0l0,0c0,0.4,0,0.7,0,1.1c0.2,3.7,1.4,6.3,3.3,8.1V39
		C30.4,38.2,30.2,37.5,30.1,36.8z"/>
	<path class="st2" d="M39.6,43.4v5.4c0.2,0,0.4,0,0.7,0c0.1,0,0.2,0,0.3,0c0.3,0,0.6,0,0.9,0c0.8-0.1,1.6-0.2,2.4-0.3c0,0,0,0,0.1,0
		l0,0c0.8-0.2,1.6-0.4,2.3-0.7c1-0.5,2-1.1,2.8-1.9c0.7-0.7,1.3-1.4,2-2c0.4-0.3,0.8-0.7,1.4-1c0.8-0.5,1.3-0.8,1.7-1.1
		c-1.1,0.3-2.2,0.5-3.4,0.7C46.9,43.3,43.1,43.7,39.6,43.4z"/>
</g>
</svg>
