<svg id="Layer_1" data-name="Layer 1" xmlns="http://www.w3.org/2000/svg" viewBox="0 0 66.0275 66.0275"><defs><style>.cls-1{fill:none;stroke:#c5b2a1;stroke-miterlimit:10;}.cls-2{fill:#fff;}.cls-3{fill:#c5b2a1;}</style></defs><title>Social Media</title><circle class="cls-1" cx="33.0137" cy="33.0137" r="32.5137"/><path class="cls-2" d="M38.0461,35.93a1.9815,1.9815,0,0,1-.0054-.2531,16.0389,16.0389,0,0,0-.2218-2.2967,9.4418,9.4418,0,0,0-2.7466-5.12l-.041-.0347c-.0669-.0566-.1358-.1106-.2053-.164-.0421-.0325-.0848-.0641-.1277-.0956a5.21,5.21,0,0,0-.9962-.5684,3.54,3.54,0,0,0-.9455-.3l-.0262-.0037a5.25,5.25,0,0,0-.6054-.0881,15.6219,15.6219,0,0,0-1.1857,1.3175,12.1211,12.1211,0,0,0-1.1,1.6071q.1536-.0222.3124-.0334c.0542-.0038.108-.0057.16-.0057,2.77,0,2.9847,5.2075,2.6531,9.78-.1223,1.6878-.3193,3.2892-.4895,4.51q-.0594.5384-.1276,1.0575-.2445,1.8614-.6015,3.4727.3376-.4848.9528-1.5931a7.2251,7.2251,0,0,1,.8994-1.2872l.1066-.1092q.9017-.9234,1.8029-1.8325a9.1886,9.1886,0,0,0,1.7078-2.6834q.0753-.1841.1439-.3746h0a12.8233,12.8233,0,0,0,.6854-4.0628C38.0517,36.4826,38.0507,36.2047,38.0461,35.93Z"/><path class="cls-2" d="M28.3739,14.0952a9.1745,9.1745,0,0,0-5.7879,2.036,6.7824,6.7824,0,0,0-1.9918,2.9647c-.0729.23-.1441.4684-.2119.7148a30.1256,30.1256,0,0,0-.598,3.4311,56.0648,56.0648,0,0,0-.0919,7.789c.01.142.0186.2519.026.3211l.0021.01c.0234.4487.05.9037.0831,1.372.2467,3.4794.3946,6.3469.4242,8.7135a38.6562,38.6562,0,0,1-.8162,6.8817l.3372-.1659.041-.02.142-.07.0875-.0431.3717-.1829.2277-.1122,1.12-.551.1335-.0657.5523-.2719.0541-.0266,2.6292-1.2941.3322-.1635.3166-.1558.3162-.1557.05-.0247c-.389-1.7345-.8153-3.4642-1.1376-5.2119a9.27,9.27,0,0,1,.27-5.3874,11.0718,11.0718,0,0,1,.8874-1.7454,16.392,16.392,0,0,1,1.2836-4.5915A12.9024,12.9024,0,0,0,23.8,31.18a39.2894,39.2894,0,0,1,.0328-8.37c.4231-3.6354,1.3709-5.5893,2.2-6.6879a6.4386,6.4386,0,0,1,.9224-.8767l.0108-.0066c.0276-.0249.0531-.0507.0822-.0751a3.9278,3.9278,0,0,0,.4047-.4446,4.1338,4.1338,0,0,1,1.0407-.6219l-.0193-.0006C28.4552,14.0958,28.4212,14.0952,28.3739,14.0952Z"/><path class="cls-3" d="M45.5646,21.6876l2.2326-5.5307a37.1782,37.1782,0,0,1-9.5157.48c-.0093-.0013-.67-.0737-.9839-.1194-1.2006-.1748-2.3576-.4129-3.4664-.583a20.544,20.544,0,0,0-3.4691-.2247,4.15,4.15,0,0,0-3.5132,2.215,9.6235,9.6235,0,0,0-.926,1.9893c.0091-.0473.019-.0977.0286-.1465-.1371.4333-.2632.8933-.3755,1.3873a11.5373,11.5373,0,0,0-.3424,2.0038,4.5367,4.5367,0,0,1,1.5786-1.8016,6.1112,6.1112,0,0,1,3.0241-.6067q1.369,0,2.6053.1195a9.6689,9.6689,0,0,1,1.0959.1612A16.187,16.187,0,0,0,26.022,33.9794c-.0051.0779-.0109.1556-.0151.2341l-.0025.038.0008.001c-.0191.3651-.03.7353-.03,1.1118.1715,3.7476,1.4936,6.3308,3.4365,8.0525V36.5513a5.8592,5.8592,0,0,1-.602-2.1932,6.3477,6.3477,0,0,1-.0388-.7034,7.0073,7.0073,0,0,1,.5653-2.7009c.0313-.0778.0508-.1207.0508-.1207l.0007.0013a11.0654,11.0654,0,0,1,1.5514-2.5105,18.7391,18.7391,0,0,1,4.9637-4.2281A16.0648,16.0648,0,0,1,39.802,22.35,21.4694,21.4694,0,0,1,45.5646,21.6876Z"/><path class="cls-3" d="M49.9845,40.06a41.754,41.754,0,0,1-11.4209.9024v5.4465c.2293.0032.4612.004.6988,0a2.47,2.47,0,0,1,.2838-.007c.3072-.009.6186-.0216.9391-.0423a18.2861,18.2861,0,0,0,2.4518-.3192l.0694-.0118.0188-.0055a12.7273,12.7273,0,0,0,2.3884-.7323A10.43,10.43,0,0,0,48.3356,43.41q1.0318-1.0244,2.0815-2.05a8.1055,8.1055,0,0,1,1.3976-.9842q1.2109-.6849,1.7376-1.054Q51.8924,39.7359,49.9845,40.06Z"/></svg>