<svg id="Layer_1" data-name="Layer 1" xmlns="http://www.w3.org/2000/svg" xmlns:xlink="http://www.w3.org/1999/xlink" viewBox="0 0 32.1659 41.9822"><defs><style>.cls-1{fill:none;}.cls-2{clip-path:url(#clip-path);}.cls-3{fill:#ccbcad;}</style><clipPath id="clip-path"><rect class="cls-1" x="-15.9657" y="-253.4231" width="383.6431" height="218.547"/></clipPath></defs><title>a049254b1cf8bb071965287052cc71cf</title><g class="cls-2"><image width="2200" height="1166" transform="translate(-111.3541 -296.0544) scale(0.2541 0.2623)" xlink:href="../../../../../../WORK/Al%20Hamayel/Web/Gmail%20Add/New%20folder/Gallery.png"/></g><path class="cls-3" d="M16.0949,41.9822a.8363.8363,0,0,1-.4059-.1163A66.6405,66.6405,0,0,1,5.4065,35.2691a16.855,16.855,0,0,1-4.2021-4.6707A8.9555,8.9555,0,0,1,0,26.0953Q.01,17.7986.0281,9.5038l.0057-2.765c.0009-.7071.1023-.8068.8348-.8258A22.6329,22.6329,0,0,0,15.65.2153a.57.57,0,0,1,.8909-.0017A22.615,22.615,0,0,0,31.3227,5.913c.7284.0181.8464.1452.8431.9049q-.0136,3.55-.0058,7.0983l.0008,2.6035-.04.1262q0,1.329-.0107,2.6571c-.0132,2.0012-.0264,4.0709.0289,6.1059a10.24,10.24,0,0,1-2.6769,7.1306,29.4508,29.4508,0,0,1-5.7439,4.9642,78.7569,78.7569,0,0,1-7.2229,4.3639A.8287.8287,0,0,1,16.0949,41.9822ZM1.0254,17.3165l.0033,2.5473c.0025,2.0277.0058,4.0553-.0091,6.083a8.15,8.15,0,0,0,1.68,5.09,22.062,22.062,0,0,0,4.8068,4.5708,72.8426,72.8426,0,0,0,8.2425,5.121.705.705,0,0,0,.3415.0974.76.76,0,0,0,.37-.11c1.5624-.8662,3.23-1.809,4.8307-2.836a33.1251,33.1251,0,0,0,7.3639-5.9791,9.0954,9.0954,0,0,0,2.4574-6.3724c-.0519-2.3691-.0362-4.78-.0214-7.1123.0066-.9751.0133-1.95.0149-2.926l.0008-.8307q.005-3.535.0223-7.072c.0008-.3464-.0726-.669-.6187-.678a15.4172,15.4172,0,0,1-1.5624-.1279A23.59,23.59,0,0,1,16.5527,1.5789a.7323.7323,0,0,0-.4628-.21.695.695,0,0,0-.4537.212,19.5438,19.5438,0,0,1-3.6486,2.4657A24.1979,24.1979,0,0,1,1.8478,6.907c-.735.0412-.7943.1039-.7943.84V17.19Z"/><path class="cls-3" d="M11.2939,32.4058a3.129,3.129,0,0,1-3.3657-3.3722s-.0016-6.57.0017-8.6715a3.0918,3.0918,0,0,1,3.1083-3.3268c.4478-.0281.485-.3019.4842-.556q-.0112-1.6234-.0025-3.2461a4.4514,4.4514,0,0,1,4.438-4.4322,4.3911,4.3911,0,0,1,1.8231.3984,4.2131,4.2131,0,0,1,2.66,4.09c.0058,1.0543.0082,2.1069,0,3.16-.0016.2937.0635.5693.5527.5907A3.0188,3.0188,0,0,1,24.02,20.17c.02,2.954.02,6.0145,0,9.0963A3.0445,3.0445,0,0,1,20.9016,32.4c-.3481.0073-.6962.009-1.0443.009ZM11.072,18.06a2.0337,2.0337,0,0,0-2.1127,2.1225q-.0036,4.4854.0009,8.9693a2.0544,2.0544,0,0,0,2.2338,2.2231q2.1913.0036,4.3828.0041,2.57,0,5.1409-.0066a2.0529,2.0529,0,0,0,2.2792-2.2536q.016-4.4434.0017-8.8852a2.0313,2.0313,0,0,0-2.1869-2.1753l-7.6832-.0016Zm4.9041-8.2276a3.4522,3.4522,0,0,0-3.4193,3.0472c-.0173.711-.0149,1.423-.0115,2.1348.0025.4983.0049.9973-.0008,1.4948a.5485.5485,0,0,0,.122.3984.5357.5357,0,0,0,.3886.1246c.4833-.0066.95-.0083,1.418-.0083l4.2293.005c.6484,0,.7078-.0611.71-.7243.0009-1.0163.0017-2.0235-.0016-3.0324a3.7741,3.7741,0,0,0-.0867-.919A3.4437,3.4437,0,0,0,15.9761,9.8322Z"/><path class="cls-3" d="M16.08,28.05c-.3036,0-.4982-.236-.5065-.6162-.0156-.6245-.02-1.249-.0033-1.8725a.8248.8248,0,0,0-.452-.83,1.72,1.72,0,0,1-.7466-1.9681,1.7762,1.7762,0,0,1,3.4226.0073,1.7268,1.7268,0,0,1-.7523,1.9674.8269.8269,0,0,0-.4554.8316c.0157.6253.01,1.2489-.0025,1.8742-.0074.372-.19.5981-.4883.6055Zm.0074-5.5525a.727.727,0,0,0-.7606.7185.7543.7543,0,0,0,.7474.7935h0a.7434.7434,0,0,0,.5387-.216.7826.7826,0,0,0,.22-.5626.7107.7107,0,0,0-.7424-.7334Z"/></svg>