<svg id="Layer_1" data-name="Layer 1" xmlns="http://www.w3.org/2000/svg" viewBox="0 0 25.1901 25.1901"><defs><style>.cls-1{fill:#c5b2a1;}.cls-2{fill:#202b36;}</style></defs><title>s</title><path class="cls-1" d="M12.5951,25.19h0A12.5951,12.5951,0,0,1,0,12.5951H0A12.5951,12.5951,0,0,1,12.5951,0h0A12.595,12.595,0,0,1,25.19,12.595h0A12.595,12.595,0,0,1,12.5951,25.19Z"/><path class="cls-2" d="M6.4636,16.73A7.8148,7.8148,0,0,0,18.4859,9.791a5.5723,5.5723,0,0,0,1.371-1.4224,5.4923,5.4923,0,0,1-1.578.4325,2.751,2.751,0,0,0,1.2077-1.52,5.5079,5.5079,0,0,1-1.7444.6672A2.75,2.75,0,0,0,13.06,10.4544,7.7983,7.7983,0,0,1,7.3962,7.5832a2.7511,2.7511,0,0,0,.85,3.6688,2.7379,2.7379,0,0,1-1.2451-.3438,2.7512,2.7512,0,0,0,2.204,2.7293,2.7518,2.7518,0,0,1-1.24.0467,2.749,2.749,0,0,0,2.5666,1.9084A5.5226,5.5226,0,0,1,6.4636,16.73Z"/></svg>