<svg id="Layer_1" data-name="Layer 1" xmlns="http://www.w3.org/2000/svg" viewBox="0 0 25.1901 25.1901"><defs><style>.cls-1{fill:#c5b2a1;}.cls-2{fill:#202b36;}</style></defs><title>s</title><path class="cls-1" d="M12.5951,25.19h0A12.5951,12.5951,0,0,1,0,12.5951H0A12.5951,12.5951,0,0,1,12.5951,0h0A12.595,12.595,0,0,1,25.19,12.595h0A12.595,12.595,0,0,1,12.5951,25.19Z"/><path class="cls-2" d="M18.2563,9.6115A1.485,1.485,0,0,0,17.2116,8.56a35.0866,35.0866,0,0,0-4.6164-.2485A35.093,35.093,0,0,0,7.9785,8.56,1.4852,1.4852,0,0,0,6.9338,9.6115,15.5811,15.5811,0,0,0,6.687,12.474a15.5825,15.5825,0,0,0,.2468,2.8626A1.4852,1.4852,0,0,0,7.9785,16.388a35.093,35.093,0,0,0,4.6167.2485,35.0866,35.0866,0,0,0,4.6164-.2485,1.4851,1.4851,0,0,0,1.0447-1.0514,15.5764,15.5764,0,0,0,.2469-2.8626A15.5749,15.5749,0,0,0,18.2563,9.6115Zm-7.2078,5.111V10.2256l3.9525,2.2485Z"/></svg>