<?xml version="1.0" encoding="utf-8"?>
<!-- Generator: Adobe Illustrator 24.0.2, SVG Export Plug-In . SVG Version: 6.00 Build 0)  -->
<svg version="1.1" id="Layer_1" xmlns="http://www.w3.org/2000/svg" xmlns:xlink="http://www.w3.org/1999/xlink" x="0px" y="0px"
	 viewBox="0 0 31.3 38.6" style="enable-background:new 0 0 31.3 38.6;" xml:space="preserve">
<style type="text/css">
	.st0{fill:#CBBCAD;}
</style>
<title>a049254b1cf8bb071965287052cc71cf</title>
<path class="st0" d="M30.7,38.5c-0.2,0-0.5,0-0.9,0l-26.6,0c0,0,0,0-0.1-0.1c-1.9-0.5-3-1.9-3-3.9c0-10.6,0-21.2,0-31.9
	c0-1.6,0.9-2.6,2.4-2.6l25.2,0c0.1,0,0.1,0,0.3,0c0.1,0,0.3,0,0.5,0l0.2,0c1.9,0.4,2.4,2.4,2.4,2.4l0,29.3l-0.3,0.3
	c-0.3,0.6-0.6,1.4-0.6,2.4c0,0.9,0.3,2.1,0.5,2.9c0.1,0.3,0.2,0.6,0.3,0.7c0.1,0.1,0.1,0.3,0.1,0.3C31.1,38.5,31.1,38.5,30.7,38.5
	L30.7,38.5z M28.2,32.1c-0.1,0-0.2,0-0.3,0.1c-0.1,0.1-0.1,0.2-0.1,0.3c0,0.6,0,1.1,0,1.7v1.2c0,0.5,0,1.1,0,1.6
	c0,0.1,0,0.3,0.1,0.3c0.1,0.1,0.1,0.1,0.3,0.1c0.2,0,0.4,0,0.6,0c0.2,0,0.4,0,0.6,0c0,0,0,0,0,0c0.2,0,0.4-0.1,0.4-0.2
	c0.1-0.1,0.1-0.2,0.1-0.4c-0.4-1.5-0.5-2.9,0-4.4c0.1-0.2,0-0.3,0-0.3c0-0.1-0.1-0.1-0.3-0.1c-0.2,0-0.4,0-0.7,0
	C28.6,32.1,28.4,32.1,28.2,32.1L28.2,32.1z M3.6,32.1c-0.1,0-0.3,0-0.4,0C1.9,32.4,1,33.6,1.1,35c0.1,1.4,1.2,2.5,2.6,2.5l22.7,0
	c0.1,0,0.3,0,0.3-0.1c0.1-0.1,0.1-0.2,0.1-0.4c0-1.5,0-2.9,0-4.4c0-0.2,0-0.3-0.1-0.4c-0.1-0.1-0.3-0.1-0.4-0.1c-2.2,0-4.4,0-6.7,0
	l-4.7,0L3.6,32.1z M2.6,1.1c-1,0-1.5,0.5-1.5,1.6V32l0.4-0.3c0.3-0.2,0.5-0.4,0.8-0.5C2.7,31.1,3.1,31,3.5,31c0.3,0,0.3-0.3,0.3-0.4
	c0-1.2,0-7.9,0-7.9c0-7,0-14,0-21c0-0.2,0-0.5-0.4-0.5c0,0-0.1,0-0.1,0c-0.1,0-0.2,0-0.2,0L2.6,1.1z M28.8,31c0.2,0,0.3,0,0.5,0
	c0,0,0.1,0,0.1,0c0.4,0,0.4-0.4,0.4-0.6c0-6.2,0-12.4,0-18.6l0-5.9c0-1,0-2,0-3.1c0-1-0.6-1.7-1.5-1.7c0,0,0,0,0,0
	c-0.2,0-0.3,0-0.4,0.1c-0.1,0.1-0.1,0.3-0.1,0.4c0,3.8,0,7.6,0,11.4v8.3c0,3,0,6.1,0,9.1c0,0.2,0,0.5,0.4,0.5
	C28.5,31,28.7,31,28.8,31z M26.5,31c0.1,0,0.2,0,0.3-0.1c0.1-0.1,0.1-0.2,0.1-0.4l0-17.3c0-3.9,0-7.7,0-11.6c0-0.2,0-0.3-0.1-0.4
	c-0.1-0.1-0.2-0.1-0.4-0.1c-3.4,0-6.9,0-10.3,0c-3.6,0-7.1,0-10.7,0c-0.5,0-0.6,0.2-0.6,0.6c0,8.3,0,16.7,0,25v3.6
	c0,0.5,0,0.6,0.6,0.6l20.9,0L26.5,31z M30.8,3.3v1.2l0.3,0c0,0,0-0.7,0-1.1c0,0,0-0.1,0-0.1L30.8,3.3z"/>
</svg>
