<svg id="Layer_1" data-name="Layer 1" xmlns="http://www.w3.org/2000/svg" viewBox="0 0 25.1901 25.1901"><defs><style>.cls-1{fill:#c5b2a1;}.cls-2{fill:#202b36;}</style></defs><title>s</title><path class="cls-1" d="M12.5951,25.19h0A12.5951,12.5951,0,0,1,0,12.5951H0A12.5951,12.5951,0,0,1,12.5951,0h0A12.595,12.595,0,0,1,25.19,12.595h0A12.595,12.595,0,0,1,12.5951,25.19Z"/><path class="cls-2" d="M18.562,9.8029a5.9081,5.9081,0,0,0-.09-1.0315,2.4705,2.4705,0,0,0-1.3085-1.8,3.1109,3.1109,0,0,0-1.4891-.3353c-1.02-.0077-2.04-.0023-3.0606-.0022-1.0125,0-2.0252-.0044-3.0377.0024a3.5461,3.5461,0,0,0-1.1582.1693A2.5387,2.5387,0,0,0,7.0437,7.8973a2.9934,2.9934,0,0,0-.4016,1.5615q-.0187,1.5925-.0207,3.1853c-.0014.5783.0073,1.1567.0145,1.735.007.5624-.0055,1.1263.0327,1.6865a2.5172,2.5172,0,0,0,.8106,1.7673,2.2765,2.2765,0,0,0,1.2179.6379,7.0055,7.0055,0,0,0,.8585.0828c.7982.0113,1.5967.0046,2.3951.0046,1.298,0,2.5961.0014,3.8942-.0027a2.3588,2.3588,0,0,0,.44-.0514,4.3794,4.3794,0,0,0,.4609-.1207,2.4948,2.4948,0,0,0,.5043-.1808,2.3792,2.3792,0,0,0,.46-.3622,2.6438,2.6438,0,0,0,.7306-1.2419,4.7172,4.7172,0,0,0,.1257-1.2112Q18.5718,12.5951,18.562,9.8029Zm-1.6037,3.8186a9.401,9.401,0,0,1-.0869,1.3075A2.2533,2.2533,0,0,1,14.83,16.8829a9.2835,9.2835,0,0,1-1.0012.067c-.7918.01-1.5839.0162-2.3755.0015a5.599,5.599,0,0,1-1.3831-.1207,2.2342,2.2342,0,0,1-1.6728-1.6424,4.8189,4.8189,0,0,1-.1318-1.2678q-.0126-1.4162.0029-2.8324A3.8783,3.8783,0,0,1,8.42,9.9152a2.1771,2.1771,0,0,1,1.7564-1.5614A7.2755,7.2755,0,0,1,11.3,8.2568c.4448-.0158.8907-.0037,1.3361-.0037v.004c.5139,0,1.028-.0065,1.5418.0021a3.6465,3.6465,0,0,1,1.2133.1852,2.2,2.2,0,0,1,1.4775,1.78,5.118,5.118,0,0,1,.0743.84C16.9568,11.9164,16.967,12.7691,16.9583,13.6215Z"/><path class="cls-2" d="M15.7075,10.0774a1.33,1.33,0,0,0-1.07-.7368,6.0352,6.0352,0,0,0-.8531-.0624q-1.1214-.0126-2.2432-.0007a8.0266,8.0266,0,0,0-.9593.0626,1.3693,1.3693,0,0,0-1.2167,1.1646,4.9939,4.9939,0,0,0-.0754.8411q-.005,1.4491.02,2.8985a2.3616,2.3616,0,0,0,.1163.6633,1.2533,1.2533,0,0,0,.9993.9038,6.6836,6.6836,0,0,0,1.1023.1009c.7369.0151,1.4743.0109,2.2114.0025a6.54,6.54,0,0,0,.9058-.0625,1.3152,1.3152,0,0,0,1.151-.9436,3.25,3.25,0,0,0,.1246-.8111c.0194-.486.0054-.9733.0054-1.46l.026-.0005c-.02-.6413-.0275-1.2832-.0679-1.9232A1.786,1.786,0,0,0,15.7075,10.0774ZM12.63,14.6631a2.068,2.068,0,1,1,2.0456-2.0691A2.06,2.06,0,0,1,12.63,14.6631Zm2.1367-3.7573a.46.46,0,0,1-.4689-.467.4781.4781,0,0,1,.4877-.4792.4871.4871,0,0,1,.4594.4865A.4646.4646,0,0,1,14.7664,10.9058Z"/><path class="cls-2" d="M12.6305,11.5151a1.0808,1.0808,0,1,0-.0256,2.1614,1.0808,1.0808,0,0,0,.0256-2.1614Z"/></svg>