<svg id="Layer_1" data-name="Layer 1" xmlns="http://www.w3.org/2000/svg" xmlns:xlink="http://www.w3.org/1999/xlink" viewBox="0 0 40.3525 43.8737"><defs><style>.cls-1{fill:none;}.cls-2{clip-path:url(#clip-path);}.cls-3{fill:#ccbcad;}</style><clipPath id="clip-path"><rect class="cls-1" x="-56.0192" y="-252.4773" width="383.6431" height="218.547"/></clipPath></defs><title>a049254b1cf8bb071965287052cc71cf</title><g class="cls-2"><image width="2200" height="1166" transform="translate(-151.4076 -295.1086) scale(0.2541 0.2623)" xlink:href="../../../../../../WORK/Al%20Hamayel/Web/Gmail%20Add/New%20folder/Gallery.png"/></g><path class="cls-3" d="M30.5319,40.3142a7.7872,7.7872,0,1,1,7.7872-7.7872A7.7955,7.7955,0,0,1,30.5319,40.3142Zm0-14.3914a6.6042,6.6042,0,1,0,6.6042,6.6042A6.611,6.611,0,0,0,30.5319,25.9228Z"/><path class="cls-3" d="M39.761,43.8737a.59.59,0,0,1-.4529-.2112l-4.4867-5.3487a.5914.5914,0,1,1,.9057-.7606l4.4868,5.3487a.5915.5915,0,0,1-.4529.9718Z"/><path class="cls-3" d="M19.5287,36.0656a11.3644,11.3644,0,0,1-.3333-1.2829H1.2181A15.6459,15.6459,0,0,1,12.216,20.5438c.051.0232.1047.0384.1557.0608.1847.081.3753.15.5649.2209.15.0555.2985.1169.4509.1654.2788.09.5646.1626.8532.23.0653.015.1288.0363.1941.05a10.6085,10.6085,0,0,0,4.5271-.0137c.08-.0172.1575-.042.2367-.061.2751-.0667.5479-.1385.8146-.2259.1337-.0436.2648-.0967.3972-.1459.2094-.0778.4173-.1575.62-.2478.0563-.025.115-.0425.1709-.0685a15.392,15.392,0,0,1,3.9187,1.8062,11.499,11.499,0,0,1,1.27-.57,16.7538,16.7538,0,0,0-3.8052-2.0169,10.7556,10.7556,0,1,0-11.7632.0378A16.8551,16.8551,0,0,0,0,35.4411a.5923.5923,0,0,0,.386.5536v.0709ZM7.11,10.7541A9.5624,9.5624,0,1,1,20.6623,19.433c-.19.0872-.3821.1686-.5766.2426-.1164.0446-.2327.0887-.3513.1287-.2366.08-.4759.1487-.717.2093-.0819.0206-.162.0444-.2442.0627a9.6207,9.6207,0,0,1-.9565.165c-.0152.0018-.03.0052-.0456.007A9.6859,9.6859,0,0,1,14.624,20.09c-.0917-.02-.1812-.0473-.272-.07-.229-.0564-.4558-.119-.68-.1925-.1395-.0463-.2759-.099-.4129-.1515-.1695-.0644-.3373-.1329-.5033-.2074A9.5688,9.5688,0,0,1,7.11,10.7541Z"/></svg>