<svg id="Layer_1" data-name="Layer 1" xmlns="http://www.w3.org/2000/svg" viewBox="0 0 51.2183 53.7292"><defs><style>.cls-1{fill:#ccbcad;}.cls-2{fill:#202b36;}</style></defs><title>a049254b1cf8bb071965287052cc71cf</title><path class="cls-1" d="M27.9557,33.8908a3.1927,3.1927,0,0,1-.0081-.3929,25.7558,25.7558,0,0,0-.3327-3.5647,14.8163,14.8163,0,0,0-4.12-7.9463c-.02-.0179-.0407-.0363-.0615-.054-.1-.0878-.2038-.1716-.308-.2546-.0632-.05-.1273-.0993-.1915-.1483a7.7526,7.7526,0,0,0-1.4947-.8821,5.1807,5.1807,0,0,0-1.4183-.4657l-.0393-.0059a7.556,7.556,0,0,0-1.3334-.1621c-.0237-.0007-.0468,0-.07,0-6.9506-.4-11.9937,6.5035-11.9937,6.5035A63.0814,63.0814,0,0,1,6.6328,13.526c.6347-5.6426,2.0565-8.6754,3.3009-10.38a9.787,9.787,0,0,1,1.3838-1.3607l.0162-.01c.0414-.0388.08-.0787.1233-.1167a6.01,6.01,0,0,0,.607-.69A6.1665,6.1665,0,0,1,13.6253.0026L13.5965.0017C13.176-.009,8.2058-.0576,4.7623,3.16A10.5479,10.5479,0,0,0,1.7742,7.7616c-.1094.3575-.2162.7272-.3179,1.11a48.18,48.18,0,0,0-.8971,5.3253,90.0427,90.0427,0,0,0-.138,12.09c.0145.22.028.391.0391.4986l.0031.0148c.0351.6966.0749,1.4028.1246,2.13.37,5.4.592,9.8511.6364,13.5242A61.97,61.97,0,0,1,0,53.1345l.5059-.2575.0615-.0314.213-.1084.1312-.067.5577-.2838.3417-.1741,1.68-.8553.2-.1019.8285-.422.0811-.0414L8.545,48.7832l.4984-.2538.475-.2419.4744-.2416.0753-.0383c-.5835-2.6922-1.2232-5.3769-1.7066-8.09a14.86,14.86,0,0,1,.4052-8.3617c1.2446-3.1763,3.6114-6.76,7.3457-7.0292,5.9714-.43,4.4466,15.047,3.4865,22.1707a68.3375,68.3375,0,0,1-1.0937,7.0314q.5063-.7525,1.4294-2.4728a11.2184,11.2184,0,0,1,1.3493-1.9978q1.4324-1.5192,2.8645-3.0138A14.3341,14.3341,0,0,0,26.7105,42.08a19.8512,19.8512,0,0,0,1.2441-6.8874C27.9642,34.7479,27.9626,34.3164,27.9557,33.8908Z"/><path class="cls-2" d="M14.0994,31.45a10.2206,10.2206,0,0,1-.0582-1.0918,11.2014,11.2014,0,0,1,.8481-4.1921c.047-.1208.0763-.1874.0763-.1874l.001.0021a17.2865,17.2865,0,0,1,2.3274-3.8967,28.3939,28.3939,0,0,1,7.4466-6.5623,23.7079,23.7079,0,0,1,5.8493-2.71,31.1892,31.1892,0,0,1,8.6452-1.0273L42.5844,3.2c-.9963.17-8.8258,1.5445-14.2756.7446-.014-.0021-1.0057-.1144-1.4759-.1853-1.8014-.2714-3.5371-.6409-5.2-.905a29.814,29.814,0,0,0-5.2043-.3487q-3.2093.0564-5.2706,3.4379A15.1822,15.1822,0,0,0,9.7684,9.0311c.0135-.0734.0285-.1516.0429-.2273-.2057.6726-.3949,1.3865-.5633,2.1531a18.4843,18.4843,0,0,0-.5139,3.11,6.9726,6.9726,0,0,1,2.3683-2.7964,8.9124,8.9124,0,0,1,4.5369-.9415q2.0538,0,3.9085.1855a14.0352,14.0352,0,0,1,1.644.25A25.17,25.17,0,0,0,9.9171,30.8626c-.0078.121-.0164.2415-.0228.3633-.0009.02-.0029.039-.0037.059l.0012.0016c-.0287.5667-.0448,1.1413-.0448,1.7256.2574,5.8167,2.1386,9.8272,6.1213,13.3161,0,0,.1061-2.9353.1782-5.1467.0709-2.1756.3411-4.1732.3411-4.1732A12.9471,12.9471,0,0,1,14.0994,31.45Z"/><path class="cls-2" d="M30.8917,41.7075A37.17,37.17,0,0,1,29.55,45.8247a19.6768,19.6768,0,0,1-3.2635,4.1973c2.115.1289,3.1377.1394,3.4941.1329a3.58,3.58,0,0,1,.4257-.0108c.461-.0139.9281-.0336,1.4089-.0657a26.54,26.54,0,0,0,3.6781-.4955c.0347-.0063.07-.0121.1043-.0184l.0281-.0083A18.6373,18.6373,0,0,0,39.0087,48.42a15.5924,15.5924,0,0,0,4.3833-2.919q1.5481-1.59,3.1227-3.1818a12.1676,12.1676,0,0,1,2.0967-1.5275q1.8168-1.0632,2.6069-1.6359-2.49.6422-5.3525,1.1457C40.1765,41.4841,36.3361,42.1832,30.8917,41.7075Z"/></svg>