<svg id="Layer_1" data-name="Layer 1" xmlns="http://www.w3.org/2000/svg" xmlns:xlink="http://www.w3.org/1999/xlink" viewBox="0 0 46.1597 35.9338"><defs><style>.cls-1{fill:none;}.cls-2{clip-path:url(#clip-path);}.cls-3{fill:#ccbcad;}</style><clipPath id="clip-path"><rect class="cls-1" x="-323.5391" y="-256.4473" width="383.6431" height="218.547"/></clipPath></defs><title>a049254b1cf8bb071965287052cc71cf</title><g class="cls-2"><image width="2200" height="1166" transform="translate(-418.9275 -299.0786) scale(0.2541 0.2623)" xlink:href="../../../../../../WORK/Al%20Hamayel/Web/Gmail%20Add/New%20folder/Gallery.png"/></g><path class="cls-3" d="M23.0809,35.9338A3.3046,3.3046,0,0,1,19.9324,33.65a.8223.8223,0,0,0-.9305-.6451q-5.1165.01-10.2306.0068H2.9068c-1.041,0-1.4463-.408-1.4463-1.4584v-.2277c-.0014-.0821.0066-.1669.0134-.2517a1.312,1.312,0,0,0-.0781-.7272.547.547,0,0,0-.5184-.2882,1.8112,1.8112,0,0,0-.233.02,1.5458,1.5458,0,0,1-.1738.0148c-.3743-.0727-.45-.2262-.4673-.435C-.002,29.5777.0006.773.0006.773c0-.7043.0647-.769.7731-.769L19.1944.0027A4.1355,4.1355,0,0,1,22.67,1.6308a.5449.5449,0,0,0,.4107.2626.5388.5388,0,0,0,.4026-.2545A4.1367,4.1367,0,0,1,26.9861.0014c2.7162.004,5.4189.0054,8.123.0054Q40.2883.0068,45.4635,0A.7721.7721,0,0,1,46.16.2693V29.8336a.6773.6773,0,0,1-.58.268l-.326-.0229a.55.55,0,0,0-.4214.1629.702.702,0,0,0-.1388.5373,7.1936,7.1936,0,0,1,.0082.7434l-.0041.237a1.1586,1.1586,0,0,1-1.2443,1.25l-9.4279.004q-3.4662,0-6.9366-.0095a.7727.7727,0,0,0-.85.6276,3.339,3.339,0,0,1-3.15,2.3027Zm-3.8407-3.75c.878.0015,1.1554.21,1.4166,1.068a2.5108,2.5108,0,0,0,4.852-.0243c.2411-.8187.5387-1.0422,1.3858-1.0437l15.9119-.0026c.4673,0,.71,0,.8861-.1777s.1764-.4242.1751-.8754c-.0041-.8592-.1118-.9763-.9655-1.0355-.1832-.0122-.4943-.0863-.49-.43.0039-.3394.3123-.3973.4955-.4,0,0,.7407-.0175.971-.0175.2167,0,.4322.0054.6477.0188h.0095c.8025,0,.8025-.575.8025-.7918Q45.32,15.0455,45.3409,1.616c0-.5616-.2276-.7906-.7851-.7906Q38.9445.84,33.3477.8363H26.9928a3.2229,3.2229,0,0,0-3.4891,3.12c-.0552.4794-.2357.5225-.4148.5266h-.0054c-.1427,0-.369-.01-.43-.5386a3.2507,3.2507,0,0,0-3.5-3.1095L11.796.8363Q6.744.8363,1.6907.8254c-.5293,0-.874.1442-.874.8512Q.8391,12.8893.83,24.1009v4.2043c0,.8295.1226.9547.9319.9547l8.1795.0013q4.5975,0,9.1937-.008a4.3554,4.3554,0,0,1,2.42.6154c.14.09.2759.1858.4146.2841l.4593.3192L22.57,30.2a1.0887,1.0887,0,0,0,.0971-.606l-.0014-7.0758a3.1,3.1,0,0,1,.0269-.5414.3961.3961,0,0,1,.7716-.0067,2.8828,2.8828,0,0,1,.03.5292l.0026,6.9627a1.5688,1.5688,0,0,0,.089.7474l.1441.3407.28-.2423a4.487,4.487,0,0,1,3.1188-1.06l.1575.0014c.7649.0161,1.5285.02,2.2947.02l.9554-.0108,2.9343.0027a.6679.6679,0,0,1,.478.1509.3377.3377,0,0,1,.093.26c-.0028.3353-.3232.4107-.59.4161l-6.4483.0041a3.2181,3.2181,0,0,0-3.4151,2.463c-.1266.3945-.3272.447-.5063.447-.1859-.0026-.3811-.0552-.5063-.4336a3.2372,3.2372,0,0,0-3.4031-2.4764L3.5774,30.09c-1.1353,0-1.2552.1131-1.2954,1.2039a.9131.9131,0,0,0,.171.7043.8555.8555,0,0,0,.6383.1965q4.8519-.014,9.689-.012Z"/><path class="cls-3" d="M27.026,22.5366c-.6127-.0014-.6975-.0876-.6989-.7124q-.006-4.8561-.0027-9.7106c0-.5616.0982-.66.6585-.6613l14.0429.0027c.6746,0,.7514.0782.7527.7554V21.83c0,.6033-.1063.71-.7124.71l-3.7652.0013Zm4.72-4.5019a6.4628,6.4628,0,0,0-3.815,1.3332,1.68,1.68,0,0,0-.7905,1.6537c.05.5.2558.6935.7366.6935,1.0342-.0081,2.06-.0108,3.0838-.0108l8.6832.0027c1.1837,0,1.3062-.1185,1.31-1.2766a.7115.7115,0,0,0-.1494-.5386.4917.4917,0,0,0-.373-.1374,1.3673,1.3673,0,0,0-.194.0162,10.3128,10.3128,0,0,1-1.4866.1117,7.3914,7.3914,0,0,1-1.9742-.2531,9.8017,9.8017,0,0,1-1.6241-.664c-.2262-.1077-.4511-.2154-.68-.3164a6.7368,6.7368,0,0,0-2.727-.6141m3.3855-3.644a3.0252,3.0252,0,0,1,1.8745.6545,2.8907,2.8907,0,0,1,.9615,3.1848.6867.6867,0,0,0,.0162.6235.62.62,0,0,0,.5332.202c.637-.0081,1.2336-.0606,1.83-.1225a.6018.6018,0,0,0,.6061-.6949c-.0095-1.7615-.0122-3.5228.0012-5.2842a.6841.6841,0,0,0-.1616-.5118.6994.6994,0,0,0-.5211-.1656q-3.1107.0081-6.2228.0067t-6.2228-.0067a.7013.7013,0,0,0-.5118.1683.71.71,0,0,0-.1657.5225c.01,1.1137.0082,2.2273.0082,3.3423v1.6713a.5388.5388,0,0,0,.1521.5l.0755.0659.1426.0054a.4958.4958,0,0,0,.3165-.1306,6.9019,6.9019,0,0,1,3.6939-1.2093.68.68,0,0,0,.742-.5952,2.8131,2.8131,0,0,1,1.3964-1.8382,2.8979,2.8979,0,0,1,1.4558-.3878m.0095.8295a2.1432,2.1432,0,0,0-2.0484,1.5284.5572.5572,0,0,0,.01.4539.4406.4406,0,0,0,.303.1979,9.9748,9.9748,0,0,1,2.14.8336c.2451.1186.4928.237.742.3488a.7123.7123,0,0,0,.2869.0686.5861.5861,0,0,0,.5117-.3958,2.0907,2.0907,0,0,0-.12-2.0187A2.1444,2.1444,0,0,0,35.1665,15.22Z"/><path class="cls-3" d="M5.0512,20.0694c-.567-.0134-.6666-.1131-.6666-.6638L4.3819,6.7821c0-.6167.0982-.7178.6949-.7178l14.0361.0027c.6436,0,.7258.0822.7258.7272l-.004,12.5319c-.0014.68-.0647.742-.7569.742l-13.6712.0054ZM5.9481,6.8845a.7731.7731,0,0,0-.567.179.8.8,0,0,0-.1764.602c.0121,2.6731.0108,5.3475.0108,8.0207l-.0014,2.1411a2.4563,2.4563,0,0,0,.12,1.084c.1709.3192.517.3461.8564.3461.1347,0,.2936-.0067.4821-.0121a.6794.6794,0,0,0,.501-.1764.6523.6523,0,0,0,.1346-.4875c-.0148-.3864-.0108-.7757.0027-1.1635a2.6111,2.6111,0,0,1,1.9136-2.4711,1.8907,1.8907,0,0,1,.5239-.0835,1.1478,1.1478,0,0,1,.738.2627l.2813.23a2.4275,2.4275,0,0,0,1.313.7218h.0028a2.17,2.17,0,0,0,1.3439-.6948c.105-.09.21-.1792.3138-.2586a1.1682,1.1682,0,0,1,.7419-.26,1.8756,1.8756,0,0,1,.5226.0821,2.6662,2.6662,0,0,1,1.9054,2.92c-.0013,1.2618.1132,1.3789,1.3534,1.38h.0014a.7619.7619,0,0,0,.5777-.17.7211.7211,0,0,0,.17-.5306q-.02-5.466-.0027-10.9347a.747.747,0,0,0-.1737-.5482.7349.7349,0,0,0-.5481-.1736c-.9979.0066-4.5625.008-4.5625.008l-4.7617.0027q-1.4947,0-2.9936-.0161Zm3.6184,8.8541a1.243,1.243,0,0,0-.781.3542A1.7805,1.7805,0,0,0,8.143,17.45c-.0054.1629-.0027.3285-.0013.4928.0041.2114.0068.4228-.008.6315a.6188.6188,0,0,0,.1333.497.6633.6633,0,0,0,.51.1737c.5657-.0054,3.298-.0054,3.298-.0054l3.3289-.0067.1805.0081a.4862.4862,0,0,0,.3541-.1293.5071.5071,0,0,0,.1334-.3717l.0012-.4282a8.8684,8.8684,0,0,0-.04-1.1972,1.6179,1.6179,0,0,0-.99-1.2712.9889.9889,0,0,0-.4417-.1118.9278.9278,0,0,0-.5507.1939c-.2842.2007-.5764.3946-.8686.5858-.2383.1562-.4781.3151-.715.4781a.6338.6338,0,0,1-.3529.1306.6159.6159,0,0,1-.3461-.1279c-.3393-.2371-.6867-.4646-1.0343-.6909l-.451-.2962a1.3126,1.3126,0,0,0-.7164-.2667"/><path class="cls-3" d="M26.898,8.4362a1.3342,1.3342,0,0,1-.233-.0149.3374.3374,0,0,1-.3232-.3406.3657.3657,0,0,1,.2653-.435.8537.8537,0,0,1,.3017-.04L41,7.6093a1.98,1.98,0,0,1,.4727.0377.3471.3471,0,0,1,.2922.3973.3562.3562,0,0,1-.3581.38c-.1267.0121-.2546.0148-.3839.0148Z"/><path class="cls-3" d="M5.0084,23.5441c-.365-.0216-.6356-.1454-.62-.4444.0161-.3327.334-.3824.5225-.3824l14.3162-.0054c.3515,0,.4808.0539.5656.2289a.3934.3934,0,0,1-.2559.5642,1.8358,1.8358,0,0,1-.4726.04H16.4212Z"/><path class="cls-3" d="M12.0829,13.4755a2.2451,2.2451,0,0,1-2.2153-2.2368,2.24,2.24,0,1,1,4.479.0256,2.2083,2.2083,0,0,1-2.2341,2.2112Zm.03-3.6494a1.4406,1.4406,0,0,0-1.414,1.39,1.3752,1.3752,0,0,0,.3986.9952,1.4342,1.4342,0,0,0,1.02.43A1.3761,1.3761,0,0,0,13.513,11.236a1.4135,1.4135,0,0,0-1.3911-1.41Z"/></svg>