<svg id="Layer_1" data-name="Layer 1" xmlns="http://www.w3.org/2000/svg" xmlns:xlink="http://www.w3.org/1999/xlink" viewBox="0 0 44.9799 44.9718"><defs><style>.cls-1{fill:none;}.cls-2{clip-path:url(#clip-path);}.cls-3{fill:#ccbcad;}</style><clipPath id="clip-path"><rect class="cls-1" x="-108.7317" y="-251.9283" width="383.6431" height="218.547"/></clipPath></defs><title>a049254b1cf8bb071965287052cc71cf</title><g class="cls-2"><image width="2200" height="1166" transform="translate(-204.1201 -294.5596) scale(0.2541 0.2623)" xlink:href="../../../../../../WORK/Al%20Hamayel/Web/Gmail%20Add/New%20folder/Gallery.png"/></g><path class="cls-3" d="M38.226,6.4314A22.3351,22.3351,0,0,0,22.0643.0036,22.5983,22.5983,0,0,0,0,22.4408,22.3449,22.3449,0,0,0,6.5846,38.3769a22.152,22.152,0,0,0,15.7647,6.5949h.01a22.548,22.548,0,0,0,16-6.5673A22.4537,22.4537,0,0,0,38.226,6.4314M22.546,1.3568h.0561l-.0047.0115c-1.53,3.7636-.9,7.46-.18,10.2611a.9622.9622,0,0,1-.2344.9483c-.5136.63-1.0181,1.27-1.5226,1.9081-.4278.5411-.8545,1.0822-1.288,1.6176a2.8027,2.8027,0,0,0-.7367,2.1173,2.0982,2.0982,0,0,0,1.7788,1.9276,10.0713,10.0713,0,0,0,1.0169.087c.2082.01.4141.0217.62.04a1.0768,1.0768,0,0,0,.21-.0024c.0424-.0011.1052-.0079.1041.0184.0652.3238.0217.389-.0949.4656a2.2,2.2,0,0,0-.31.2585l-.0663.0618a1.3684,1.3684,0,0,0-.5113,1.1657,1.29,1.29,0,0,0,.7424.9472c.5158.27,1.0478.4907,1.6129.7241.0675.03.135.056.2037.0858l-.1339.072c-.49.2643-.9517.5137-1.3944.8019a1.262,1.262,0,0,0-.7059.9678,1.2176,1.2176,0,0,0,.6315.9781,1.0887,1.0887,0,0,1,.4953,1.2926,3.1746,3.1746,0,0,0,2.7718,3.54,14.82,14.82,0,0,0,5.468-.2185c.699-.12,1.4368-.2768,2.2547-.4793.1361-.0343.1968-.0309.2059-.0378a.71.71,0,0,1,.0287.2335c.04,3.0462.096,6.032.167,8.8747.0068.2584-.0642.3671-.3421.53a20.4081,20.4081,0,0,1-13.8268,2.8072C11.332,42.0536,5.6706,37.5,2.733,29.8271A20.788,20.788,0,0,1,3.7809,12.668,21.2873,21.2873,0,0,1,17.7175,1.9219a22.9415,22.9415,0,0,1,4.7667-.5651ZM34.9189,39.5209l.0011-2.2021c0-2.019.0011-3.9808-.0023-5.9416l.0012-.3729c.0022-.858.0034-1.25-.2849-1.4768a.6376.6376,0,0,0-.4175-.1315,4.4931,4.4931,0,0,0-.9472.1749c-.1521.0367-.3238.0779-.5147.1225a26.1031,26.1031,0,0,1-5.5516.7652,5.6127,5.6127,0,0,1-1.5111-.2139,1.791,1.791,0,0,1-1.4277-2.3267,1.534,1.534,0,0,0-.7069-1.8487,1.2388,1.2388,0,0,1-.2345-.1659,1.5609,1.5609,0,0,1,.3123-.1806c.5113-.2414,1.0135-.508,1.5145-.7734l.3489-.1829c.2586-.1316.6922-.3513.6291-.8809a1.1092,1.1092,0,0,0-.7984-.8374c-.2493-.1-.4988-.1956-.7481-.2906-.4816-.1853-.9621-.3706-1.4368-.5731-.12-.0514-.2036-.0892-.2586-.1189.0538-.0527.1327-.1213.2369-.2082a1.9346,1.9346,0,0,0,.4324-2.4423,1.1819,1.1819,0,0,0-1.0136-.49c-.1932-.0115-.3866-.0252-.58-.039-.3523-.0273-.7023-.0526-1.0547-.0583a.82.82,0,0,1-.8385-.51,1.0047,1.0047,0,0,1,.214-1.1244l.6817-.8671c.7012-.8969,1.4254-1.8224,2.1689-2.7032a2.7164,2.7164,0,0,0,.5881-2.5155l-.1351-.6293a15.2534,15.2534,0,0,1-.5125-5.1773,17.9159,17.9159,0,0,1,.8306-3.5155c.0995-.295.1716-.3431.4861-.3156a20.0022,20.0022,0,0,1,8.265,2.5372c5.9943,3.4147,9.56,8.4206,10.5974,14.8781,1.3408,8.3393-1.463,15.2818-8.3335,20.6355"/><path class="cls-3" d="M14.8329,32.5668h0c-.2013-.1692-.3947-.3489-.5812-.5331a9.6144,9.6144,0,0,1-3.0211-9.2385,11.554,11.554,0,0,1,2.3154-4.8171l.05-.0629a.649.649,0,0,0-.0549-1.0284.675.675,0,0,0-.55-.1807.6614.6614,0,0,0-.4255.4049.6006.6006,0,0,1-.0457.0859,12.5408,12.5408,0,0,0-2.7993,7.2113,11.2977,11.2977,0,0,0,4.2555,9.1435.6906.6906,0,0,0,.4507.2093c.0125,0,.0286,0,.0435-.0011a.646.646,0,0,0,.4243-.2654.6085.6085,0,0,0-.0617-.9277"/><path class="cls-3" d="M16.5947,30.4352c-.0766-.0687-.1556-.1361-.2266-.21a7.184,7.184,0,0,1-2.1814-7.2926,9.5138,9.5138,0,0,1,1.6221-3.2351.5378.5378,0,0,1,.0446-.0457.5022.5022,0,0,0,.0538-.7768,1.9,1.9,0,0,0-.2632-.2242l-.3374-.2677-.3283.3477a3.1522,3.1522,0,0,0-.262.293,9.13,9.13,0,0,0-1.9584,7.2776,9.0686,9.0686,0,0,0,3.09,5.21.701.701,0,0,0,.4644.2231l.0343-.0011a.6961.6961,0,0,0,.3913-1.168Z"/><path class="cls-3" d="M16.837,20.5263a.44.44,0,0,1-.0389.0641,6.962,6.962,0,0,0-1.5534,4.0507,6.4753,6.4753,0,0,0,2.3484,4.8217.6688.6688,0,0,0,.4405.21.549.549,0,0,0,.0606-.0035.5332.5332,0,0,0,.3809-.2666.42.42,0,0,1,.0469-.056.6037.6037,0,0,0,.19-.4392.5567.5567,0,0,0-.2139-.3833c-.159-.1384-.3089-.286-.4541-.4381a4.6466,4.6466,0,0,1-1.5-3.5268,5.5623,5.5623,0,0,1,1.29-3.1824.6612.6612,0,0,0-.1006-1.03.53.53,0,0,0-.8969.1784"/></svg>