<svg id="Layer_1" data-name="Layer 1" xmlns="http://www.w3.org/2000/svg" xmlns:xlink="http://www.w3.org/1999/xlink" viewBox="0 0 56.857 46.762"><defs><style>.cls-1{fill:none;}.cls-2{clip-path:url(#clip-path);}.cls-3{fill:#ccbcad;}</style><clipPath id="clip-path"><rect class="cls-1" x="-163.393" y="-251.0332" width="383.6431" height="218.547"/></clipPath></defs><title>a049254b1cf8bb071965287052cc71cf</title><g class="cls-2"><image width="2200" height="1166" transform="translate(-258.7815 -293.6645) scale(0.2541 0.2623)" xlink:href="../../../../../../WORK/Al%20Hamayel/Web/Gmail%20Add/New%20folder/Gallery.png"/></g><path class="cls-3" d="M9.8292,20.0342c.1481.065.3.12.4517.176l.0994.0375c.0862.0336.1724.0666.26.0959.2224.07.4509.1289.6822.1831l.1547.0392a5.8709,5.8709,0,0,0,1.27.127h.1039l.8542-1.0783-.3378.0072v.09h0l-.12-.09-.18-.0019c-.1868-.007-.3724-.02-.5939-.0461a7.4081,7.4081,0,0,1-.747-.13l-.19-.0478c-.1876-.0481-.3749-.1015-.5589-.1637-.0936-.0321-.1843-.0657-.2759-.1013-.151-.057-.3015-.1209-.4488-.1886a7.4567,7.4567,0,0,1,3.0209-14.235h.0524l.0259-.0462c.1749-.312.3572-.62.5581-.9167L14,3.6121l-.2871-.0169c-.1146-.0078-.2284-.0151-.3452-.0151h-.1047A8.5805,8.5805,0,0,0,8.4389,19.2607a13.4083,13.4083,0,0,0-2.8015,1.5158l-.1175.11A13.3862,13.3862,0,0,0,0,31.6733a.5228.5228,0,0,0,.3049.4943v.0908H6.1662l.0124-.0757c.0577-.34.1221-.6748.1984-1.009l.0247-.111H1.1479A12.1118,12.1118,0,0,1,9.8292,20.0342Z"/><path class="cls-3" d="M22.106,20.4139c.0507.0231.1039.0382.1546.06.1836.08.3733.1494.5614.22.1494.0551.2966.1159.4484.1643.2767.089.5609.1616.8476.2282.0647.0149.1278.0361.193.05a10.6669,10.6669,0,0,0,2.2227.2361c.0223,0,.0437-.0034.0656-.0034s.0437.0034.0656.0034a10.6669,10.6669,0,0,0,2.2227-.2361c.0647-.0136.1278-.0348.193-.05.2871-.0666.5709-.1392.848-.2282.151-.0484.2986-.1092.448-.1643.1884-.07.3777-.1392.5609-.22.0507-.0222.1044-.0373.1551-.06a15.4033,15.4033,0,0,1,7.5285,5.1388,11.1929,11.1929,0,0,1,.9454-.7086,16.8476,16.8476,0,0,0-3.404-3.2252c.01-.0035.0185-.0089.0281-.0123a16.6567,16.6567,0,0,0-3.7044-1.9727A10.6776,10.6776,0,0,0,26.6649,0c-.0219,0-.0434.0031-.0656.0033S26.556,0,26.5337,0a10.6776,10.6776,0,0,0-5.821,19.6339,16.6421,16.6421,0,0,0-3.7042,1.9727c.0094.0034.0181.0088.0276.0123a16.7393,16.7393,0,0,0-7.0687,13.598.589.589,0,0,0,.3836.55v.07H34.7268a11.2852,11.2852,0,0,1-.1193-1.2747h-23.43A15.5475,15.5475,0,0,1,22.106,20.4139Zm-4.9429-9.7277A9.4365,9.4365,0,1,1,30.4991,19.31q-.2835.13-.5729.2411c-.116.0444-.2315.0881-.349.1279q-.3533.1185-.7127.2081c-.0813.02-.1609.044-.2425.062a9.5064,9.5064,0,0,1-.9508.164c-.0148.0019-.03.0054-.0453.007-.236.0269-.4727.0425-.71.0516-.1056.0029-.2112.0037-.3168.0031s-.2112,0-.3168-.0031c-.2367-.0091-.4739-.0247-.71-.0516-.0149-.0016-.03-.0051-.0454-.007a9.5364,9.5364,0,0,1-.95-.164c-.0816-.018-.1609-.0418-.2426-.062-.2392-.06-.4776-.1291-.7122-.2081-.118-.04-.2339-.0835-.3494-.1279q-.29-.11-.5724-.2411A9.5063,9.5063,0,0,1,17.1631,10.6862Z"/><path class="cls-3" d="M39.44,4.6612l.0259.0462h.0524a7.4568,7.4568,0,0,1,3.0208,14.235c-.1476.0677-.2977.1316-.4491.1886-.0916.0356-.1824.0692-.2755.1013-.184.0622-.3716.1156-.5593.1637l-.19.0478a7.3886,7.3886,0,0,1-.747.13c-.221.0266-.407.0391-.5934.0461l-.1807.0019-.12.09h-.0005v-.09l-.3378-.0072.8542,1.0783h.1044a5.8778,5.8778,0,0,0,1.27-.127l.1546-.0392c.231-.0542.46-.1128.6818-.1831.0879-.0293.1745-.0623.2607-.0959l.0994-.0375c.151-.0559.3032-.111.4517-.176a12.0262,12.0262,0,0,1,5.2777,3.197,11.0955,11.0955,0,0,1,1.98.6362,13.444,13.444,0,0,0-2.9487-2.9806l-.117-.11a13.42,13.42,0,0,0-2.8014-1.5158A8.5805,8.5805,0,0,0,39.5281,3.58h-.1048c-.1163,0-.23.0073-.3448.0151l-.287.0169.09.1324C39.0818,4.0407,39.2641,4.3492,39.44,4.6612Z"/><path class="cls-3" d="M56.7184,45.79l-4.6628-5.5587a8.834,8.834,0,1,0-.8954.7725l4.6525,5.5467a.5913.5913,0,1,0,.9057-.7605ZM38.4722,34.1317a7.463,7.463,0,1,1,7.463,7.463A7.4709,7.4709,0,0,1,38.4722,34.1317Z"/></svg>