<svg id="Layer_1" data-name="Layer 1" xmlns="http://www.w3.org/2000/svg" xmlns:xlink="http://www.w3.org/1999/xlink" viewBox="0 0 41.0645 35.8394"><defs><style>.cls-1{fill:none;}.cls-2{clip-path:url(#clip-path);}.cls-3{fill:#ccbcad;}</style><clipPath id="clip-path"><rect class="cls-1" x="-273.0575" y="-256.4945" width="383.6431" height="218.547"/></clipPath></defs><title>a049254b1cf8bb071965287052cc71cf</title><g class="cls-2"><image width="2200" height="1166" transform="translate(-368.4459 -299.1258) scale(0.2541 0.2623)" xlink:href="../../../../../../WORK/Al%20Hamayel/Web/Gmail%20Add/New%20folder/Gallery.png"/></g><path class="cls-3" d="M1.0313,26.6769C.0382,26.6769,0,26.6377,0,25.6125V.9684C0,.0994.0963,0,.9383,0H31.0614c.7963,0,.9059.1086.9059.8973V25.7946c0,.7821-.0963.8807-.8627.8807l-15.1371.0016Zm.93-4.6305a.9573.9573,0,0,0-.7224.2674,1.4059,1.4059,0,0,0-.2167,1.1948,3.2184,3.2184,0,0,1,.0282.3426,2.606,2.606,0,0,1-.0273.3718,1.3577,1.3577,0,0,0,.2425,1.2115.9306.9306,0,0,0,.6825.2406,3.2758,3.2758,0,0,0,.357-.0267,2.98,2.98,0,0,1,.3322-.0317l.773-.0025c.1055,0,.3679.0083.3695.0083a.7394.7394,0,0,0,.5812-.1864.7907.7907,0,0,0,.1852-.5882c-.0166-.6491-.0174-1.3,0-1.9475a.832.832,0,0,0-.1885-.6125.6837.6837,0,0,0-.5181-.1947c-.1844.0084-.2765.0109-.3687.0109l-.475-.005-.2573.0041a2.8093,2.8093,0,0,1-.3612-.0242A3.6591,3.6591,0,0,0,1.9612,22.0464Zm26.17.05a.6574.6574,0,0,0-.7233.7445c.0091.1713.0067.3409.0033.5089-.0017.1846-.0033.3693.005.5531a2.2931,2.2931,0,0,1-.0224.3467,1.3308,1.3308,0,0,0,.2309,1.174.9485.9485,0,0,0,.6916.2465,3.3975,3.3975,0,0,0,.3629-.0276,2.487,2.487,0,0,1,.2981-.0284l1.2222.0092a.7026.7026,0,0,0,.5364-.1864.6932.6932,0,0,0,.181-.5205q-.0148-1.0552,0-2.1073a.7.7,0,0,0-.1843-.5255.71.71,0,0,0-.5165-.1855c-.36.0034-.7008.0059-1.0412.0059S28.1312,22.0965,28.1312,22.0965Zm-10.8535-.0007a.7444.7444,0,0,0-.5828.1929.7814.7814,0,0,0-.1836.5841c.0158.6651.0141,1.3352,0,2.0019a.7593.7593,0,0,0,.18.559.7318.7318,0,0,0,.533.1921c.4965-.0075.9764-.01,1.4564-.01.5032,0,1.5112.01,1.5112.01h.0008a.7309.7309,0,0,0,.5473-.1921.746.746,0,0,0,.181-.5548c-.0141-.6334-.0224-1.3144.0016-1.9994a.7735.7735,0,0,0-.1826-.5858.7262.7262,0,0,0-.553-.2c-.2616.0076-.4451.01-.632.01l-1.71.0017c-.1893,0-.3786-.0026-.5671-.01ZM6.3014,22.0949a.7066.7066,0,0,0-.5281.1905.7622.7622,0,0,0-.1868.564c.01.6692.0141,1.3393-.0016,2.0061a.7583.7583,0,0,0,.1851.5715.7468.7468,0,0,0,.5455.1972c.2368-.0059,1.043-.0059,1.0529-.0059l1.2887-.0016c.1819,0,.5971.0067.5979.0067a.7477.7477,0,0,0,.5721-.1914.7326.7326,0,0,0,.1835-.5414c-.0142-.6851-.0133-1.3711-.0017-2.0571a.657.657,0,0,0-.7223-.737c-.5008.0051-.98.0076-1.4582.0076-.5048,0-1.527-.0092-1.527-.0092Zm16.3761.0033a.7144.7144,0,0,0-.5447.1889.6688.6688,0,0,0-.1753.5113q.0176,1.0528,0,2.1089a.7268.7268,0,0,0,.1777.5306.6672.6672,0,0,0,.5032.1855c.1187-.0025,2.4172-.0067,2.4172-.0067.161,0,.5513.0058.5521.0058a.7555.7555,0,0,0,.5821-.19.7083.7083,0,0,0,.1785-.5381c-.015-.6834-.0124-1.37,0-2.0537a.7478.7478,0,0,0-.1852-.5548.7286.7286,0,0,0-.5339-.1913c-.5073.0058-1,.0083-1.4929.0083Zm-7.9049,3.5252a.6875.6875,0,0,0,.5173-.1873.7561.7561,0,0,0,.1827-.5372c-.0108-.6885-.0133-1.3752.0008-2.0595a.7556.7556,0,0,0-.1844-.5532.7106.7106,0,0,0-.5206-.19c-.23.0051-1.0346.0051-1.0454.0051l-1.9654-.0034a.69.69,0,0,0-.5189.188.6817.6817,0,0,0-.18.5114q.0111,1.0578,0,2.1113a.64.64,0,0,0,.6958.7145l1.5744-.0067Zm7.21-4.5763q3.9932,0,7.9838.0143a.985.985,0,0,0,.729-.2341,1.0043,1.0043,0,0,0,.2292-.7486q-.0236-6.7478.0008-13.5a.9871.9871,0,0,0-.2258-.7269.9786.9786,0,0,0-.7175-.229q-6.9972.0113-13.9962.01T1.9828,5.624a.96.96,0,0,0-.7265.2272.9492.9492,0,0,0-.2225.7119q.0261,6.7742,0,13.5507a.9666.9666,0,0,0,.2209.72.9492.9492,0,0,0,.7091.2265q4.1038-.0163,8.1888-.0134ZM2.7933,4.5687c.33,0,.6609.0033.993.0125h0a.7471.7471,0,0,0,.5746-.1972.7788.7788,0,0,0,.1852-.5832c-.0166-.6484-.0166-1.2984,0-1.9451a.8274.8274,0,0,0-.1909-.6142.6891.6891,0,0,0-.5173-.1963c-.2068.0134-.3222.0159-.4368.0159l-.58-.0084-.6419.0059c-.1129,0-.3919-.0084-.3936-.0084a.7309.7309,0,0,0-.56.1847.7688.7688,0,0,0-.1835.5656c.01.6651.0142,1.3335-.0016,1.9995a.7817.7817,0,0,0,.1884.5849.711.711,0,0,0,.5356.1955C2.13,4.572,2.46,4.5687,2.7933,4.5687Zm25.352-3.5209a.7481.7481,0,0,0-.5506.1988.77.77,0,0,0-.1885.5682c.0167.6684.0183,1.3318,0,1.9994a.7531.7531,0,0,0,.1885.5656.74.74,0,0,0,.56.2006c.37-.0067.7107-.0109,1.05-.0109.2939,0,.9665.0083.9673.0083a.7455.7455,0,0,0,.5713-.198.7206.7206,0,0,0,.1735-.5506c-.0108-.2273-.0082-.4536-.0049-.6817V2.5224c-.0026-.2932-.0042-.51.0049-.7252a.7149.7149,0,0,0-.1793-.55.719.719,0,0,0-.5414-.198c-.367.0067-.7066.01-1.0462.01-.3239,0-1.0023-.0116-1.0023-.0116Zm-21.843,0a.7.7,0,0,0-.529.193.7532.7532,0,0,0-.1851.5656c.0083.6668.0124,1.3369-.0033,2.0019a.7508.7508,0,0,0,.1884.574.7342.7342,0,0,0,.5422.1981c.245-.0067.441-.0092.6377-.0092l1.6641.0008c.2126,0,.6426.0067.6426.0067a.7439.7439,0,0,0,.568-.1938.7249.7249,0,0,0,.1827-.5407c-.0133-.6867-.0116-1.37-.0017-2.0562a.7282.7282,0,0,0-.1851-.5465.7485.7485,0,0,0-.5431-.1937c-.5189.0066-1.0254.0091-1.5286.0091-.4792,0-1.4481-.0091-1.449-.0091Zm16.38.0016a.7542.7542,0,0,0-.5464.1921.7491.7491,0,0,0-.18.5448q.0236,1.0278,0,2.0538a.7574.7574,0,0,0,.181.5464.6984.6984,0,0,0,.5281.1922c.2441-.005.4492-.0075.6543-.0075L25.03,4.572c.1852,0,.6111.0058.6119.0058a.7165.7165,0,0,0,.5481-.1855.7067.7067,0,0,0,.1777-.523c-.0116-.701-.01-1.4045,0-2.1088a.71.71,0,0,0-.1794-.5223.7161.7161,0,0,0-.5256-.1888c-.5189.005-1.0263.0075-1.5361.0075C23.65,1.0569,22.6825,1.0494,22.6825,1.0494Zm-5.4471-.0016a.7465.7465,0,0,0-.5422.193.7506.7506,0,0,0-.1819.5464c.0141.6843.0158,1.37,0,2.0554a.758.758,0,0,0,.18.5456.6979.6979,0,0,0,.5247.1905c.2408-.005.4409-.0075.6394-.0075l1.7113.0008c.2,0,.6377.0067.6377.0067a.71.71,0,0,0,.54-.1855.7022.7022,0,0,0,.1752-.5247c-.0116-.701-.0116-1.4062,0-2.11a.6953.6953,0,0,0-.176-.5221.7075.7075,0,0,0-.5248-.1872c-.504.005-.9947.0075-1.488.0075s-1.4929-.0091-1.4937-.0091Zm-5.418,0a.7418.7418,0,0,0-.5729.1988.7781.7781,0,0,0-.1877.5815q.0175,1,0,2.0019a.7538.7538,0,0,0,.1844.559.6759.6759,0,0,0,.5131.19c.2383-.0067,1.0678-.0067,1.0811-.0067l1.302-.0008c.1843,0,.5928.0066.5937.0066a.7267.7267,0,0,0,.5579-.19.77.77,0,0,0,.1844-.56c-.0124-.6668-.0158-1.3344,0-2.0012a.787.787,0,0,0-.1851-.58.7355.7355,0,0,0-.5506-.1988c-.5073.0083-.99.0108-1.4721.0108s-.9649-.0025-1.4482-.0108Z"/><path class="cls-3" d="M5.5251,31.2641c-.8918,0-.9831-.0911-.984-.9776a3.1924,3.1924,0,0,0-.0274-.6108,1.6277,1.6277,0,0,1-.0149-.3952.7514.7514,0,0,1,.32-.051c.13,0,.2615.0134.3952.0268.1279.0142.2533.0259.3745.03a.8644.8644,0,0,0,.1652.686.89.89,0,0,0,.6984.2423q7.311-.0073,14.6189-.0084l13.533.0068a.8942.8942,0,0,0,.6651-.2123.8829.8829,0,0,0,.2125-.65q-.0174-11.4325,0-22.8652a.9236.9236,0,0,0-.2176-.6659.7055.7055,0,0,0-.52-.1973,1.8942,1.8942,0,0,0-.1927.0135,3.9925,3.9925,0,0,1,.0474-1.0052,3.24,3.24,0,0,1,.8137-.0534c1.0687.0007,1.1093.11,1.1093.9692V30.2848c0,.8882-.0913.9793-.9815.9793l-5.0119.0007Z"/><path class="cls-3" d="M10.0072,35.8394c-.7995,0-.9108-.1085-.9125-.8931l.0009-.4052c.0008-.2073.0025-.4162-.0026-.625A.8677.8677,0,0,1,9.37,33.881c.1694,0,.2957-.0059.4194-.0176.088-.0067.1627-.0125.235-.0125a.4156.4156,0,0,1,.1685.0208l-.0017-.0008c-.0107,0-.0024.0727-.0282.2123a.58.58,0,0,0,.1146.4854.6189.6189,0,0,0,.4949.2164h9.6627q9.3015,0,18.6013.0133c.7066,0,.9948-.2891.9948-.9959q-.0274-11.3061-.0026-22.6121a1.0591,1.0591,0,0,0-.2341-.7829.7405.7405,0,0,0-.5455-.2064c-.0449,0-.0914.0034-.142.0084l-.0174-.0359a3.7874,3.7874,0,0,1,.0223-.95,3.0857,3.0857,0,0,1,.813-.0576h.1643c.9126,0,.9757.0635.9757.97V34.8736c0,.8756-.088.9658-.9424.9658Z"/><path class="cls-3" d="M13.1933,17.5279c-.4019,0-.4492-.4888-.4509-.6994-.0049-.7094-.0042-1.42-.0033-2.13l.0008-2.4038c-.0024-.813-.0041-1.6243.0042-2.4356.0008-.2081.0481-.69.4583-.69a.9376.9376,0,0,1,.45.142q3.06,1.7384,6.1022,3.5017a.6846.6846,0,0,1,.4044.53.7052.7052,0,0,1-.4151.5414q-3.0441,1.762-6.1006,3.5017A.9447.9447,0,0,1,13.1933,17.5279Zm.6368-6.2658-.0033,4.8069,4.7371-2.7239L13.9564,10.699Z"/></svg>